<svg
  width="69"
  height="69"
  viewBox="0 0 69 69"
  fill="none"
  xmlns="http://www.w3.org/2000/svg"
>
  <circle cx="34.5" cy="34.5" r="34.5" fill="#FCEADB" />
  <path
    d="M35.4848 39.4461H34.4402L33.5 30.5669C33.5 29.7312 34.1268 29 34.9625 29C35.7981 29 36.4249 29.7312 36.4249 30.5669L35.4848 39.4461Z"
    fill="#FFC147"
  />
  <path
    d="M34.9626 43.6244C35.5395 43.6244 36.0072 43.1567 36.0072 42.5798C36.0072 42.0028 35.5395 41.5352 34.9626 41.5352C34.3857 41.5352 33.918 42.0028 33.918 42.5798C33.918 43.1567 34.3857 43.6244 34.9626 43.6244Z"
    fill="#FFC147"
  />
  <path
    fillRule="evenodd"
    clipRule="evenodd"
    d="M31.7502 24.9803C33.0491 22.3399 36.951 22.3399 38.2499 24.9803L46.6495 42.0551C47.7796 44.3524 46.0395 47 43.3996 47H26.6004C23.9605 47 22.2204 44.3524 23.3505 42.0551L31.7502 24.9803ZM36.9499 25.5732C36.1706 23.989 33.8295 23.989 33.0501 25.5732L24.6505 42.648C23.9724 44.0264 25.0164 45.615 26.6004 45.615H43.3996C44.9836 45.615 46.0276 44.0264 45.3495 42.648L36.9499 25.5732Z"
    fill="#FFC147"
  />
</svg>